<?xml version="1.0" encoding="utf-8"?>
<!-- Generator: Adobe Illustrator 24.0.0, SVG Export Plug-In . SVG Version: 6.00 Build 0)  -->
<svg version="1.1" id="Layer_1" xmlns="http://www.w3.org/2000/svg" xmlns:xlink="http://www.w3.org/1999/xlink" x="0px" y="0px"
	 viewBox="0 0 595.3 358.6" style="enable-background:new 0 0 595.3 358.6;" xml:space="preserve">
<style type="text/css">
	.st0{fill:#231F20;}
</style>
<path id="path3280" class="st0" d="M35.9,204.7c-1.2,0-1.8-1.2-1.2-2.3l35.9-46.5c0.9-1.1,2.1-2,3.3-2h42.2c1.7,0,2.3,1.4,1,3
	l-34.6,44.8c-1.3,1.7-3.1,3-4.8,3H35.9 M89.8,204.7c-1.2,0-1.8-1.2-1.2-2.3l35.9-46.5c0.9-1.1,2.1-2,3.3-2h19.2c1.7,0,2.3,1.4,1,3
	l-34.6,44.8c-1.3,1.7-3.1,3-4.8,3H89.8 M122.7,204.7c-1.3,0-1.8-1.2-1.2-2.3l35.9-46.5c0.8-1.1,2.1-2,3.3-2h14.3c1.7,0,2.3,1.4,1,3
	l-34.6,44.8c-1.3,1.7-3.1,3-4.7,3H122.7 M162.1,204.7c1.7,0,3.5-1.3,4.7-3l34.6-44.8c1.3-1.7,0.7-3-1-3h-9.8c-1.2,0-2.5,0.9-3.3,2
	l-36,46.5c-0.6,1.1,0,2.3,1.2,2.3H162.1 M186.3,204.7c1.6,0,3.5-1.3,4.7-3l34.6-44.8c1.3-1.7,0.7-3-1-3h-6.9c-1.2,0-2.5,0.9-3.3,2
	l-36,46.5c-0.6,1.1,0,2.3,1.2,2.3H186.3 M220.2,204.7h-16.6c-1.2,0-1.8-1.2-1.2-2.3l35.9-46.5c0.8-1.1,2.1-2,3.3-2h77.3
	c2.1,0,3.4,1.7,3.4,3.8v44c0,1.7-1.4,3-3,3h-12.9c-1.6,0-3-1.4-3-3v-6.4c0-1.8-0.2-2.5-2-2.5h-67.7c-1.3,0-2.1,0.9-3,2l-0.2,0.3
	l-5.2,6.7c-1.3,1.7-3.1,3-4.8,3L220.2,204.7L220.2,204.7z M253.6,166.7c-0.8,0-1.6,0.6-2.2,1.4l-7.9,10.3c-0.6,0.7-0.2,1.3,0.6,1.3
	h57.3c1.8,0,2-0.7,2-2.5v-7.1c0-2.4,0.1-3.4-2-3.4H253.6 M398.6,189.3c-1.4,0.9-2.4,1.8-4.1,1.8h-12.8c-1.6,0-2.7-0.9-4.1-1.8
	l-24.6-15.6c-1.4-0.9-2.6-0.3-2.6,1.4v26.6c0,1.7-1.3,3-3,3h-12.9c-1.7,0-3-1.4-3-3v-44.8c0-1.7,1.4-3,3-3h13.8c1.7,0,2.6,0.7,4,1.6
	l33.6,21.8c1.4,0.9,2.8,0.9,4.2,0l33.6-21.7c1.4-0.9,2.4-1.6,4.1-1.6h13.8c1.6,0,3,1.4,3,3v44.8c0,1.7-1.4,3-3,3h-12.9
	c-1.7,0-3-1.4-3-3v-26.6c0-1.7-1.1-2.3-2.5-1.4L398.6,189.3L398.6,189.3 M560.8,176.9c0-1.7-1.4-3-3-3h-49.6c-1.6,0-3,1.4-3,3v4.2
	c0,1.7,1.4,3.1,3,3.1h31.2c2.1,0,2,0.9,2,3.3v0.5c0,2.4,0.1,3-2,3h-63.5c-1.7,0-3-1.4-3-3v-18.4c0-1.7,1.3-3,3-3h81.9
	c1.7,0,3-1.4,3-3v-6.8c0-1.7-1.4-3-3-3H457c-1.7,0-3,1.4-3,3v44.8c0,1.7,1.4,3,3,3h100.8c1.7,0,3-1.4,3-3v-25.3"/>
</svg>
